<svg width="18" height="18" viewBox="0 0 20 20" fill="none" xmlns="http://www.w3.org/2000/svg">
<path d="M14.477 2.00195C14.7082 1.77075 14.9827 1.58735 15.2847 1.46223C15.5868 1.33711 15.9106 1.27271 16.2375 1.27271C16.5645 1.27271 16.8883 1.33711 17.1903 1.46223C17.4924 1.58735 17.7669 1.77075 17.9981 2.00195C18.2293 2.23315 18.4127 2.50763 18.5378 2.8097C18.6629 3.11178 18.7273 3.43554 18.7273 3.76251C18.7273 4.08948 18.6629 4.41324 18.5378 4.71532C18.4127 5.01739 18.2293 5.29187 17.9981 5.52307L6.11433 17.4068L1.2728 18.7272L2.59321 13.8857L14.477 2.00195Z" stroke="#C4C4C4" stroke-width="2" stroke-linecap="round" stroke-linejoin="round"/>
</svg>
