<svg width="37" height="37" viewBox="0 0 37 37" fill="none" xmlns="http://www.w3.org/2000/svg">
<path d="M18.5001 10.3289C15.8925 10.3289 13.7712 12.4503 13.7712 15.0578C13.7712 17.6653 15.8925 19.7867 18.5001 19.7867C21.1077 19.7867 23.229 17.6653 23.229 15.0578C23.229 12.4503 21.1076 10.3289 18.5001 10.3289Z" fill="#EB5757"/>
<path d="M29.5656 4.58352C26.6099 1.62778 22.6801 0 18.5001 0C14.3201 0 10.3902 1.62778 7.43454 4.58352C4.47873 7.53933 2.85095 11.4691 2.85095 15.649C2.85095 24.1051 10.8464 31.1383 15.1419 34.9169C15.7387 35.442 16.2542 35.8953 16.6647 36.2789C17.1793 36.7597 17.8396 37 18.5 37C19.1604 37 19.8207 36.7596 20.3353 36.279C20.7459 35.8954 21.2613 35.442 21.8582 34.9169C26.1536 31.1384 34.1491 24.1051 34.1491 15.6491C34.1491 11.4691 32.5213 7.53933 29.5656 4.58352ZM18.5001 21.9541C14.6974 21.9541 11.6038 18.8605 11.6038 15.0578C11.6038 11.2551 14.6974 8.16146 18.5001 8.16146C22.3028 8.16146 25.3964 11.2551 25.3964 15.0578C25.3964 18.8605 22.3027 21.9541 18.5001 21.9541Z" fill="#EB5757"/>
</svg>
