<svg width="33" height="37" viewBox="0 0 33 37" fill="none" xmlns="http://www.w3.org/2000/svg">
<path d="M27.5656 4.58352C24.6099 1.62778 20.6801 0 16.5001 0C12.3201 0 8.39021 1.62778 5.43454 4.58352C2.47873 7.53933 0.850952 11.4691 0.850952 15.649C0.850952 24.1051 8.84642 31.1383 13.1419 34.9169C13.7387 35.442 14.2542 35.8953 14.6647 36.2789C15.1793 36.7597 15.8396 37 16.5 37C17.1604 37 17.8207 36.7596 18.3353 36.279C18.7459 35.8954 19.2613 35.442 19.8582 34.9169C24.1536 31.1384 32.1491 24.1051 32.1491 15.6491C32.1491 11.4691 30.5213 7.53933 27.5656 4.58352ZM16.5001 21.9541C12.6974 21.9541 9.60376 18.8605 9.60376 15.0578C9.60376 11.2551 12.6974 8.16146 16.5001 8.16146C20.3028 8.16146 23.3964 11.2551 23.3964 15.0578C23.3964 18.8605 20.3027 21.9541 16.5001 21.9541Z" fill="#EB5757"/>
</svg>
